PathFileType	4	(X/Y/Z)	C:\Users\Public\Documents\Vicon Data\AADs Machine\Frameless Spring Test\Dec182020\10lbsSpring1.trc
DataRate	CameraRate	NumFrames	NumMarkers	Units	OrigDataRate	OrigDataStartFrame	OrigNumFrames
100.0	100.0	23	9	mm	100.0	521	1041	
Frame#	Time	Heel			MP5			Toe			MMAL			LMAL			Shank			SpringTop			LateralKnee			MedialKnee			
		X1	Y1	Z1	X2	Y2	Z2	X3	Y3	Z3	X4	Y4	Z4	X5	Y5	Z5	X6	Y6	Z6	X7	Y7	Z7	X8	Y8	Z8	X9	Y9	Z9	
521	5.2	-193.28148	46.592339	-770.09442	-238.92943	38.04644	-598.49762	-171.3817	39.14246	-529.48199	-119.33129	111.22878	-708.47461	-242.17296	119.33728	-700.23065	-161.98628	237.63458	-583.39093	-184.02711	203.93675	-722.18713	-193.49806	447.61292	-573.28357	-118.6513	443.25534	-575.60919
522	5.21	-193.26172	46.624741	-770.07593	-238.92001	38.082909	-598.4917	-171.3927	39.157139	-529.48248	-119.30379	111.21529	-708.43042	-242.27896	119.46375	-700.06879	-161.98763	237.40863	-583.02295	-183.93904	204.04651	-721.91534	-193.40239	447.36438	-572.37439	-118.68352	442.82343	-574.67963
523	5.22	-193.22894	46.586578	-770.11359	-238.87825	38.085907	-598.51721	-171.35677	39.138973	-529.50952	-119.87724	110.71083	-708.60181	-242.2003	119.40392	-700.19666	-161.87137	237.08598	-582.7713	-183.86221	204.03448	-721.73419	-193.29991	447.07858	-571.52887	-118.75475	442.54477	-573.73792
524	5.23	-193.27217	46.568863	-770.11176	-238.86502	38.073612	-598.51556	-171.33087	39.142059	-529.50336	-119.84407	110.69646	-708.61688	-242.12924	119.39258	-700.18433	-161.76477	236.7523	-582.43988	-183.79787	204.09413	-721.49042	-192.99416	446.67773	-570.71014	-118.35613	442.21896	-572.92023
525	5.24	-193.24588	46.595139	-770.1048	-238.90054	38.071815	-598.51996	-171.38348	39.125359	-529.51239	-119.80594	110.69136	-708.6264	-242.1929	119.4597	-700.09454	-161.83209	236.44614	-582.04187	-183.69144	204.16403	-721.25598	-193.0042	446.53815	-569.55261	-118.1687	441.91913	-572.02319
526	5.25	-193.20456	46.640797	-770.06934	-238.87729	38.119965	-598.5166	-171.35451	39.165413	-529.49579	-119.19473	111.15031	-708.4342	-242.16589	119.52592	-700.07239	-162.22423	236.22983	-581.61633	-183.60143	204.23007	-721.00195	-193.65094	446.64804	-568.33997	-117.86446	441.6369	-571.09723
527	5.26	-193.21321	46.582909	-770.10315	-238.84003	38.105225	-598.52521	-171.32063	39.141212	-529.50885	-119.7307	110.64771	-708.59973	-242.05751	119.44691	-700.16516	-161.74228	235.86162	-581.34808	-183.53369	204.21791	-720.80902	-193.34929	446.27698	-567.53387	-117.64822	441.32104	-570.23041
528	5.27	-193.2016	46.593925	-770.11133	-238.879	38.067879	-598.53607	-171.34099	39.104427	-529.52411	-119.75194	110.62906	-708.58844	-242.12311	119.51357	-700.0686	-161.75867	235.49612	-580.94452	-183.50606	204.27812	-720.5639	-192.8259	445.61142	-566.97211	-117.52119	440.82819	-569.34351
529	5.28	-193.22101	46.649696	-770.06671	-238.86671	38.134727	-598.51099	-171.34364	39.193817	-529.4809	-119.73364	110.70284	-708.53375	-242.12378	119.55296	-700.02972	-161.74722	235.17146	-580.61273	-183.45522	204.36856	-720.27643	-192.18292	444.83435	-566.33368	-117.57643	440.56525	-568.3338
530	5.29	-193.22531	46.61591	-770.06073	-238.85281	38.128361	-598.51532	-171.32442	39.158398	-529.49902	-119.71114	110.65459	-708.54932	-242.13885	119.51208	-700.05975	-161.72874	234.78242	-580.32703	-183.49211	204.33308	-720.03351	-192.31738	444.7468	-565.24176	-117.46683	440.20178	-567.28027
531	5.3	-193.20706	46.599617	-770.08502	-238.84578	38.079563	-598.51044	-171.32413	39.105026	-529.52075	-119.67103	110.63371	-708.57611	-242.12793	119.49363	-700.04791	-161.68488	234.45213	-579.9588	-183.47627	204.36986	-719.80035	-193.01482	444.94739	-563.87817	-117.3604	439.87161	-566.32739
532	5.31	-193.20546	46.678333	-770.06354	-238.87505	38.103218	-598.49005	-171.3477	39.171478	-529.47711	-119.746	110.67149	-708.52631	-242.15694	119.58508	-699.9541	-161.73872	234.16655	-579.59686	-183.43044	204.47432	-719.54047	-193.36084	445.00018	-562.73114	-117.17611	439.54871	-565.43561
533	5.32	-193.22787	46.652199	-770.06329	-238.86317	38.090969	-598.49329	-171.30525	39.17321	-529.48969	-119.75256	110.63973	-708.52972	-242.16582	119.55588	-699.97888	-161.66856	233.8754	-579.32251	-183.42471	204.48718	-719.26807	-194.13936	445.31985	-561.40601	-116.58907	439.30307	-564.78772
534	5.33	-193.21638	46.65015	-770.06512	-238.82666	38.077068	-598.49731	-171.25845	39.155003	-529.50293	-119.70245	110.605	-708.52869	-242.09201	119.55301	-699.96808	-161.5182	233.55452	-579.06696	-183.35162	204.51686	-719.05402	-193.68605	444.96695	-560.56207	-116.67424	438.84821	-563.87482
535	5.34	-193.19156	46.704056	-770.04907	-238.84836	38.082619	-598.47888	-171.26242	39.151527	-529.49451	-119.09673	111.03183	-708.40167	-242.12093	119.64207	-699.85767	-161.44775	233.31441	-578.79437	-183.27934	204.57291	-718.81635	-193.92993	444.80637	-559.6626	-116.48755	438.54129	-563.18793
536	5.35	-193.19339	46.679733	-770.05865	-238.81662	38.126213	-598.49341	-171.24289	39.192112	-529.51495	-119.62118	110.62347	-708.56268	-242.05315	119.65896	-699.87628	-161.30806	233.16902	-578.56018	-183.15643	204.60245	-718.68127	-193.20393	444.41217	-559.13293	-116.25066	438.28754	-562.54889
537	5.36	-193.1969	46.687798	-770.05103	-238.78648	38.130104	-598.47046	-171.19524	39.182953	-529.50391	-119.5369	110.60712	-708.49799	-242.00835	119.64896	-699.88934	-161.10916	232.88371	-578.32861	-183.09494	204.59071	-718.46844	-190.47041	442.46707	-559.90051	-115.93546	438.00275	-561.97229
538	5.37	-193.15244	46.66552	-770.06799	-238.77168	38.088974	-598.48608	-171.1787	39.17065	-529.52924	-119.45161	110.54736	-708.52655	-241.93279	119.68301	-699.84552	-160.96344	232.63899	-578.07928	-182.95341	204.61417	-718.3241	-192.41805	443.87094	-557.97198	-115.10056	437.70737	-561.66522
539	5.38	-193.13335	46.692848	-770.06006	-238.74503	38.135914	-598.4751	-171.14635	39.212963	-529.53571	-119.40198	110.5559	-708.53833	-241.88432	119.77213	-699.7746	-160.7648	232.43004	-577.84167	-182.84097	204.68463	-718.14728	-190.52895	442.62402	-558.38989	-114.74874	437.42917	-561.16669
540	5.39	-193.12148	46.703259	-770.06238	-238.73877	38.167194	-598.45648	-171.1597	39.229729	-529.49518	-119.29911	110.5115	-708.53973	-241.74925	119.70527	-699.85016	-160.58841	232.14395	-577.61835	-182.74086	204.66171	-717.98828	-189.83792	442.0166	-558.06189	-114.41396	437.17331	-560.51855
541	5.4	-193.10544	46.694733	-770.05103	-238.69046	38.130093	-598.47333	-171.10815	39.199291	-529.50299	-119.2339	110.47693	-708.5672	-241.66431	119.71958	-699.74811	-160.43988	231.90616	-577.38849	-182.65425	204.6736	-717.81189	-189.65446	441.83252	-557.35358	-114.09789	436.84323	-559.90546
542	5.41	-193.09816	46.710842	-770.05121	-238.71399	38.152458	-598.47296	-171.12532	39.212406	-529.5235	-119.22887	110.46503	-708.59888	-241.68909	119.82414	-699.71539	-160.36723	231.68263	-577.16565	-182.57822	204.72337	-717.62964	-189.39064	441.59006	-556.7381	-113.91232	436.51413	-559.39185
543	5.42	-193.09138	46.699722	-770.06781	-238.69711	38.185677	-598.47632	-171.12805	39.252174	-529.52173	-119.27122	110.40214	-708.6153	-241.75723	119.87299	-699.69269	-160.20543	231.42575	-576.95245	-182.517	204.74667	-717.4823	-189.27657	441.34213	-556.15314	-114.07869	436.18002	-558.55029
